<?xml version="1.0" encoding="utf-8"?>
<!-- Generator: Adobe Illustrator 19.1.0, SVG Export Plug-In . SVG Version: 6.00 Build 0)  -->
<svg version="1.1" id="Layer_1" xmlns="http://www.w3.org/2000/svg" xmlns:xlink="http://www.w3.org/1999/xlink" x="0px" y="0px"
	 viewBox="-260 253.5 439 55.5" style="enable-background:new -260 253.5 439 55.5;" xml:space="preserve">
<style type="text/css">
	.st0{fill:#515F71;}
	.st1{fill:#7FADF2;}
	.st2{fill:#B8D3F4;}
</style>
<path id="XMLID_191_" class="st0" d="M-12.1,271.5c5.4,0,9.7,4.4,9.7,9.7c0,5.3-4.4,9.7-9.7,9.7s-9.7-4.4-9.7-9.7
	C-21.8,275.9-17.5,271.5-12.1,271.5 M-12.1,266c-8.4,0-15.2,6.8-15.2,15.2c0,8.4,6.8,15.2,15.2,15.2s15.2-6.8,15.2-15.2
	C3.1,272.8-3.7,266-12.1,266L-12.1,266z"/>
<path id="XMLID_190_" class="st0" d="M11.9,253.5H7c-0.2,0-0.3,0.1-0.3,0.3v41.8c0,0.2,0.1,0.3,0.3,0.3h4.9c0.2,0,0.3-0.1,0.3-0.3
	v-41.8C12.1,253.6,12,253.5,11.9,253.5z"/>
<path id="XMLID_188_" class="st0" d="M148.4,266.5h-4.8c-0.1,0-0.2,0.1-0.3,0.2l-7.8,22.9c-0.2,0.5-0.8,0.5-1,0l-7.8-22.9
	c0-0.1-0.1-0.2-0.3-0.2h-4.8c-0.2,0-0.3,0.2-0.3,0.4l9.9,28.8c0,0.1,0.1,0.2,0.3,0.2h6.8c0.1,0,0.2-0.1,0.3-0.2l9.9-28.8
	C148.7,266.7,148.6,266.5,148.4,266.5z"/>
<path id="XMLID_185_" class="st0" d="M-122,290.9c-2.9,0-5.4-1.2-7.2-3.2c-0.1-0.2-0.1-0.4,0.1-0.5l16.8-7.1l4.9-2.1
	c0.2-0.1,0.2-0.2,0.2-0.3c-1.6-6.9-7.9-12-15.3-11.7c-7.8,0.3-14.3,6.6-14.6,14.4c-0.4,8.7,6.5,15.9,15.2,15.9
	c6.3,0,11.7-3.9,14-9.4c0.1-0.2,0-0.4-0.2-0.4l-4.9-0.9c-0.1,0-0.3,0-0.3,0.2C-115.1,288.8-118.3,290.9-122,290.9z M-122,271.5
	c2.9,0,5.5,1.3,7.2,3.3c0.1,0.2,0.1,0.4-0.1,0.5c0,0-16.2,6.9-16.4,7c-0.2,0.1-0.4-0.1-0.4-0.2c0-0.3,0-0.5,0-0.8
	C-131.7,275.8-127.3,271.5-122,271.5z"/>
<path id="XMLID_182_" class="st0" d="M-188.1,271.5c5.4,0,9.7,4.4,9.7,9.7c0,5.3-4.4,9.7-9.7,9.7c-5.3,0-9.7-4.4-9.7-9.7
	C-197.8,275.9-193.4,271.5-188.1,271.5 M-188.1,266c-8.4,0-15.2,6.8-15.2,15.2c0,8.4,6.8,15.2,15.2,15.2c8.4,0,15.2-6.8,15.2-15.2
	C-172.9,272.8-179.7,266-188.1,266L-188.1,266z"/>
<path id="XMLID_121_" class="st0" d="M-155.2,265.7c-3.8,0.1-6.8,1.6-8.9,4.1c-0.2,0.2-0.5,0.1-0.5-0.2v-2.8c0-0.2-0.1-0.3-0.3-0.3
	h-4.9c-0.2,0-0.3,0.1-0.3,0.3v41.9c0,0.2,0.1,0.3,0.3,0.3h4.8c0.2,0,0.3-0.1,0.3-0.3v-16.5c0-0.3,0.3-0.4,0.5-0.2
	c2.1,2.5,5.2,4.1,9.2,4.1c9.3,0,16.7-8.4,14.9-18C-141.3,270.8-147.9,265.6-155.2,265.7z M-153.3,290.5c-6.6,1.1-12.3-4.6-11.2-11.2
	c0.7-4,3.9-7.3,7.9-7.9c6.6-1.1,12.3,4.6,11.2,11.2C-146,286.6-149.3,289.8-153.3,290.5z"/>
<path id="XMLID_178_" class="st0" d="M-89.7,266c-3.2,0-6.9,2-8.6,4.4c-0.1,0.2-0.5,0.1-0.5-0.1v-3.5c0-0.1-0.1-0.3-0.3-0.3h-4.9
	c-0.1,0-0.3,0.1-0.3,0.3v14.5v14.4c0,0.1,0.1,0.3,0.3,0.3h4.9c0.1,0,0.3-0.1,0.3-0.3v-14.4c0-5.5,3.7-9.4,9-9.4c7,0,9.1,4.6,9.1,10
	v13.8c0,0.1,0.1,0.3,0.3,0.3h4.9c0.1,0,0.3-0.1,0.3-0.3v-13.8C-75.1,273.5-79.1,266-89.7,266z"/>
<path id="XMLID_177_" class="st0" d="M-32.1,288.6"/>
<path id="XMLID_176_" class="st0" d="M22.6,253.5h-4.9c-0.2,0-0.3,0.1-0.3,0.3v41.8c0,0.2,0.1,0.3,0.3,0.3h4.9
	c0.2,0,0.3-0.1,0.3-0.3v-41.8C22.9,253.6,22.7,253.5,22.6,253.5z"/>
<path id="XMLID_173_" class="st0" d="M41.9,290.9c-2.9,0-5.4-1.2-7.2-3.2c-0.1-0.2-0.1-0.4,0.1-0.5l16.8-7.1l4.9-2.1
	c0.2-0.1,0.2-0.2,0.2-0.3c-1.6-6.9-7.9-12-15.3-11.7c-7.8,0.3-14.3,6.6-14.6,14.4c-0.4,8.7,6.5,15.9,15.2,15.9
	c6.3,0,11.7-3.9,14-9.4c0.1-0.2,0-0.4-0.2-0.4l-4.9-0.9c-0.1,0-0.3,0-0.3,0.2C48.8,288.8,45.5,290.9,41.9,290.9z M41.9,271.5
	c2.9,0,5.5,1.3,7.2,3.3c0.1,0.2,0.1,0.4-0.1,0.5c0,0-16.2,6.9-16.4,7c-0.2,0.1-0.4-0.1-0.4-0.2c0-0.3,0-0.5,0-0.8
	C32.1,275.8,36.5,271.5,41.9,271.5z"/>
<path id="XMLID_172_" class="st0" d="M74.6,290.9c-6,0-10.7-5.4-9.6-11.6c0.6-3.4,4-6.9,7.4-7.6c3.7-0.8,7.2,0.5,9.4,3
	c0.1,0.1,0.3,0.1,0.4,0c0.8-0.8,3.3-3.3,3.5-3.5c0.1-0.1,0.1-0.3,0-0.4c-2.9-3.2-7.2-5.1-11.9-4.9c-7.7,0.4-14.1,6.7-14.5,14.4
	c-0.4,8.7,6.5,15.9,15.2,15.9c4.4,0,8.4-1.9,11.2-4.9c0.1-0.1,0.1-0.2,0-0.3c-0.6-0.6-2.8-2.8-3.5-3.5c-0.1-0.1-0.3-0.1-0.4,0
	C80.1,289.7,77.5,290.9,74.6,290.9z"/>
<path id="XMLID_171_" class="st0" d="M106.7,266.5h-5.5c-0.1,0-0.2-0.1-0.2-0.2v-12.5c0-0.2-0.1-0.3-0.3-0.3h-4.9
	c-0.2,0-0.3,0.1-0.3,0.3v12.5c0,0.1-0.1,0.2-0.2,0.2h-5.4c-0.2,0-0.3,0.1-0.3,0.3v4.9c0,0.2,0.1,0.3,0.3,0.3h5.4
	c0.1,0,0.2,0.1,0.2,0.2v23.4c0,0.2,0.1,0.3,0.3,0.3h4.9c0.2,0,0.3-0.1,0.3-0.3v-23.4c0-0.1,0.1-0.2,0.2-0.2h5.5
	c0.2,0,0.3-0.1,0.3-0.3v-4.9C107,266.7,106.8,266.5,106.7,266.5z"/>
<path id="XMLID_168_" class="st0" d="M164.2,290.9c-2.9,0-5.4-1.2-7.2-3.2c-0.1-0.2-0.1-0.4,0.1-0.5l16.8-7.1l4.9-2.1
	c0.2-0.1,0.2-0.2,0.2-0.3c-1.6-6.9-7.9-12-15.3-11.7c-7.8,0.3-14.3,6.6-14.6,14.4c-0.4,8.7,6.5,15.9,15.2,15.9
	c6.3,0,11.7-3.9,14-9.4c0.1-0.2,0-0.4-0.2-0.4l-4.9-0.9c-0.1,0-0.3,0-0.3,0.2C171.1,288.8,167.9,290.9,164.2,290.9z M164.2,271.5
	c2.9,0,5.5,1.3,7.2,3.3c0.1,0.2,0.1,0.4-0.1,0.5c0,0-16.2,6.9-16.4,7c-0.2,0.1-0.4-0.1-0.4-0.2c0-0.3,0-0.5,0-0.8
	C154.4,275.8,158.8,271.5,164.2,271.5z"/>
<path id="XMLID_167_" class="st0" d="M116.8,257.1h-4.9c-0.2,0-0.3,0.1-0.3,0.3v4.9c0,0.2,0.1,0.3,0.3,0.3h4.9
	c0.2,0,0.3-0.1,0.3-0.3v-4.9C117.1,257.2,117,257.1,116.8,257.1z"/>
<path id="XMLID_161_" class="st0" d="M116.8,266.5h-4.9c-0.2,0-0.3,0.1-0.3,0.3v28.8c0,0.2,0.1,0.3,0.3,0.3h4.9
	c0.2,0,0.3-0.1,0.3-0.3v-28.8C117.1,266.7,117,266.5,116.8,266.5z"/>
<path id="XMLID_125_" class="st0" d="M-40,290.9c-6,0-10.7-5.4-9.6-11.6c0.6-3.4,4-6.9,7.4-7.6c3.7-0.8,7.2,0.5,9.4,3
	c0.1,0.1,0.3,0.1,0.4,0c0.8-0.8,3.3-3.3,3.5-3.5c0.1-0.1,0.1-0.3,0-0.4c-2.9-3.2-7.2-5.1-11.9-4.9c-7.7,0.4-14.1,6.7-14.5,14.4
	c-0.4,8.7,6.5,15.9,15.2,15.9c4.4,0,8.4-1.9,11.2-4.9c0.1-0.1,0.1-0.2,0-0.3c-0.6-0.6-2.8-2.8-3.5-3.5c-0.1-0.1-0.3-0.1-0.4,0
	C-34.5,289.7-37.1,290.9-40,290.9z"/>
<g>
	<g id="XMLID_154_">
		<g id="XMLID_155_">
			<path id="XMLID_159_" class="st1" d="M-241.7,293c-4,0-7.8-2.1-9.9-5.5c-2.2-3.5-2.4-7.9-0.6-11.5c1.8-3.5,5.3-6,9.2-6.4
				c2-0.2,4,0.1,5.9,0.9c0.3,0.1,1.6,1,1.8,0.9s0.4-0.4,0.6-0.6c1.4-1.4,2.8-2.8,4.1-4.1c-4.3-3.2-9.9-4.4-15.1-3.3
				s-9.7,4.6-12.2,9.2c-2.5,4.7-2.8,10.5-0.8,15.5c2,4.9,6.1,8.8,11.2,10.5c5.7,1.9,12.1,0.9,16.9-2.8c-1.2-1.2-2.4-2.4-3.7-3.7
				c-0.3-0.3-0.5-0.6-0.8-0.8c-0.4-0.3-0.2-0.2-0.8,0.1C-237.7,292.4-239.7,293-241.7,293z"/>
		</g>
	</g>
	<path id="XMLID_1_" class="st2" d="M-227.1,270.2l-4.7,4.7c1.2,1.8,1.9,4,1.9,6.3c0,2.3-0.7,4.5-1.9,6.3l4.7,4.7
		c2.3-3.1,3.7-6.9,3.7-11.1C-223.4,276.9-224.8,273.2-227.1,270.2z"/>
</g>
</svg>
