<?xml version="1.0" encoding="utf-8"?>
<!-- Generator: Adobe Illustrator 19.0.0, SVG Export Plug-In . SVG Version: 6.00 Build 0)  -->
<svg version="1.1" id="Layer_1" xmlns="http://www.w3.org/2000/svg" xmlns:xlink="http://www.w3.org/1999/xlink" x="0px" y="0px"
	 viewBox="0 0 439 55.5" enable-background="new 0 0 439 55.5" xml:space="preserve">
<path id="XMLID_191_" fill="#515F71" d="M247.9,18c5.4,0,9.7,4.4,9.7,9.7s-4.4,9.7-9.7,9.7s-9.7-4.4-9.7-9.7S242.5,18,247.9,18
	 M247.9,12.5c-8.4,0-15.2,6.8-15.2,15.2s6.8,15.2,15.2,15.2c8.4,0,15.2-6.8,15.2-15.2S256.3,12.5,247.9,12.5L247.9,12.5z"/>
<path id="XMLID_190_" fill="#515F71" d="M271.9,0H267c-0.2,0-0.3,0.1-0.3,0.3v41.8c0,0.2,0.1,0.3,0.3,0.3h4.9c0.2,0,0.3-0.1,0.3-0.3
	V0.3C272.1,0.1,272,0,271.9,0z"/>
<path id="XMLID_188_" fill="#515F71" d="M408.4,13h-4.8c-0.1,0-0.2,0.1-0.3,0.2l-7.8,22.9c-0.2,0.5-0.8,0.5-1,0l-7.8-22.9
	c0-0.1-0.1-0.2-0.3-0.2h-4.8c-0.2,0-0.3,0.2-0.3,0.4l9.9,28.8c0,0.1,0.1,0.2,0.3,0.2h6.8c0.1,0,0.2-0.1,0.3-0.2l9.9-28.8
	C408.7,13.2,408.6,13,408.4,13z"/>
<path id="XMLID_185_" fill="#515F71" d="M138,37.4c-2.9,0-5.4-1.2-7.2-3.2c-0.1-0.2-0.1-0.4,0.1-0.5l16.8-7.1l4.9-2.1
	c0.2-0.1,0.2-0.2,0.2-0.3c-1.6-6.9-7.9-12-15.3-11.7c-7.8,0.3-14.3,6.6-14.6,14.4c-0.4,8.7,6.5,15.9,15.2,15.9
	c6.3,0,11.7-3.9,14-9.4c0.1-0.2,0-0.4-0.2-0.4l-4.9-0.9c-0.1,0-0.3,0-0.3,0.2C144.9,35.3,141.7,37.4,138,37.4z M138,18
	c2.9,0,5.5,1.3,7.2,3.3c0.1,0.2,0.1,0.4-0.1,0.5c0,0-16.2,6.9-16.4,7c-0.2,0.1-0.4-0.1-0.4-0.2c0-0.3,0-0.5,0-0.8
	C128.3,22.3,132.7,18,138,18z"/>
<path id="XMLID_182_" fill="#515F71" d="M71.9,18c5.4,0,9.7,4.4,9.7,9.7s-4.4,9.7-9.7,9.7s-9.7-4.4-9.7-9.7S66.6,18,71.9,18
	 M71.9,12.5c-8.4,0-15.2,6.8-15.2,15.2s6.8,15.2,15.2,15.2s15.2-6.8,15.2-15.2S80.3,12.5,71.9,12.5L71.9,12.5z"/>
<path id="XMLID_121_" fill="#515F71" d="M104.8,12.2c-3.8,0.1-6.8,1.6-8.9,4.1c-0.2,0.2-0.5,0.1-0.5-0.2v-2.8c0-0.2-0.1-0.3-0.3-0.3
	h-4.9c-0.2,0-0.3,0.1-0.3,0.3v41.9c0,0.2,0.1,0.3,0.3,0.3H95c0.2,0,0.3-0.1,0.3-0.3V38.7c0-0.3,0.3-0.4,0.5-0.2
	c2.1,2.5,5.2,4.1,9.2,4.1c9.3,0,16.7-8.4,14.9-18C118.7,17.3,112.1,12.1,104.8,12.2z M106.7,37c-6.6,1.1-12.3-4.6-11.2-11.2
	c0.7-4,3.9-7.3,7.9-7.9c6.6-1.1,12.3,4.6,11.2,11.2C114,33.1,110.7,36.3,106.7,37z"/>
<path id="XMLID_178_" fill="#515F71" d="M170.3,12.5c-3.2,0-6.9,2-8.6,4.4c-0.1,0.2-0.5,0.1-0.5-0.1v-3.5c0-0.1-0.1-0.3-0.3-0.3
	h-4.9c-0.1,0-0.3,0.1-0.3,0.3v14.5v14.4c0,0.1,0.1,0.3,0.3,0.3h4.9c0.1,0,0.3-0.1,0.3-0.3V27.8c0-5.5,3.7-9.4,9-9.4
	c7,0,9.1,4.6,9.1,10v13.8c0,0.1,0.1,0.3,0.3,0.3h4.9c0.1,0,0.3-0.1,0.3-0.3V28.4C184.9,20,180.9,12.5,170.3,12.5z"/>
<path id="XMLID_177_" fill="#515F71" d="M227.9,35.1"/>
<path id="XMLID_176_" fill="#515F71" d="M282.6,0h-4.9c-0.2,0-0.3,0.1-0.3,0.3v41.8c0,0.2,0.1,0.3,0.3,0.3h4.9
	c0.2,0,0.3-0.1,0.3-0.3V0.3C282.9,0.1,282.7,0,282.6,0z"/>
<path id="XMLID_173_" fill="#515F71" d="M301.9,37.4c-2.9,0-5.4-1.2-7.2-3.2c-0.1-0.2-0.1-0.4,0.1-0.5l16.8-7.1l4.9-2.1
	c0.2-0.1,0.2-0.2,0.2-0.3c-1.6-6.9-7.9-12-15.3-11.7c-7.8,0.3-14.3,6.6-14.6,14.4c-0.4,8.7,6.5,15.9,15.2,15.9
	c6.3,0,11.7-3.9,14-9.4c0.1-0.2,0-0.4-0.2-0.4l-4.9-0.9c-0.1,0-0.3,0-0.3,0.2C308.8,35.3,305.5,37.4,301.9,37.4z M301.9,18
	c2.9,0,5.5,1.3,7.2,3.3c0.1,0.2,0.1,0.4-0.1,0.5c0,0-16.2,6.9-16.4,7s-0.4-0.1-0.4-0.2c0-0.3,0-0.5,0-0.8
	C292.1,22.3,296.5,18,301.9,18z"/>
<path id="XMLID_172_" fill="#515F71" d="M334.6,37.4c-6,0-10.7-5.4-9.6-11.6c0.6-3.4,4-6.9,7.4-7.6c3.7-0.8,7.2,0.5,9.4,3
	c0.1,0.1,0.3,0.1,0.4,0c0.8-0.8,3.3-3.3,3.5-3.5c0.1-0.1,0.1-0.3,0-0.4c-2.9-3.2-7.2-5.1-11.9-4.9c-7.7,0.4-14.1,6.7-14.5,14.4
	c-0.4,8.7,6.5,15.9,15.2,15.9c4.4,0,8.4-1.9,11.2-4.9c0.1-0.1,0.1-0.2,0-0.3c-0.6-0.6-2.8-2.8-3.5-3.5c-0.1-0.1-0.3-0.1-0.4,0
	C340.1,36.2,337.5,37.4,334.6,37.4z"/>
<path id="XMLID_171_" fill="#515F71" d="M366.7,13h-5.5c-0.1,0-0.2-0.1-0.2-0.2V0.3c0-0.2-0.1-0.3-0.3-0.3h-4.9
	c-0.2,0-0.3,0.1-0.3,0.3v12.5c0,0.1-0.1,0.2-0.2,0.2h-5.4c-0.2,0-0.3,0.1-0.3,0.3v4.9c0,0.2,0.1,0.3,0.3,0.3h5.4
	c0.1,0,0.2,0.1,0.2,0.2v23.4c0,0.2,0.1,0.3,0.3,0.3h4.9c0.2,0,0.3-0.1,0.3-0.3V18.7c0-0.1,0.1-0.2,0.2-0.2h5.5
	c0.2,0,0.3-0.1,0.3-0.3v-4.9C367,13.2,366.8,13,366.7,13z"/>
<path id="XMLID_168_" fill="#515F71" d="M424.2,37.4c-2.9,0-5.4-1.2-7.2-3.2c-0.1-0.2-0.1-0.4,0.1-0.5l16.8-7.1l4.9-2.1
	c0.2-0.1,0.2-0.2,0.2-0.3c-1.6-6.9-7.9-12-15.3-11.7c-7.8,0.3-14.3,6.6-14.6,14.4c-0.4,8.7,6.5,15.9,15.2,15.9
	c6.3,0,11.7-3.9,14-9.4c0.1-0.2,0-0.4-0.2-0.4l-4.9-0.9c-0.1,0-0.3,0-0.3,0.2C431.1,35.3,427.9,37.4,424.2,37.4z M424.2,18
	c2.9,0,5.5,1.3,7.2,3.3c0.1,0.2,0.1,0.4-0.1,0.5c0,0-16.2,6.9-16.4,7s-0.4-0.1-0.4-0.2c0-0.3,0-0.5,0-0.8
	C414.4,22.3,418.8,18,424.2,18z"/>
<path id="XMLID_167_" fill="#515F71" d="M376.8,3.6h-4.9c-0.2,0-0.3,0.1-0.3,0.3v4.9c0,0.2,0.1,0.3,0.3,0.3h4.9
	c0.2,0,0.3-0.1,0.3-0.3V3.9C377.1,3.7,377,3.6,376.8,3.6z"/>
<path id="XMLID_161_" fill="#515F71" d="M376.8,13h-4.9c-0.2,0-0.3,0.1-0.3,0.3v28.8c0,0.2,0.1,0.3,0.3,0.3h4.9
	c0.2,0,0.3-0.1,0.3-0.3V13.3C377.1,13.2,377,13,376.8,13z"/>
<g id="XMLID_154_">
	<g id="XMLID_155_">
		<path id="XMLID_159_" fill="#86ACDB" d="M18.3,39.5c-4,0-7.8-2.1-9.9-5.5C6.2,30.5,6,26.1,7.8,22.5c1.8-3.5,5.3-6,9.2-6.4
			c2-0.2,4,0.1,5.9,0.9c0.3,0.1,1.6,1,1.8,0.9c0.2-0.1,0.4-0.4,0.6-0.6c1.4-1.4,2.8-2.8,4.1-4.1c-4.3-3.2-9.9-4.4-15.1-3.3
			C9.1,11,4.6,14.5,2.1,19.1c-2.5,4.7-2.8,10.5-0.8,15.5c2,4.9,6.1,8.8,11.2,10.5c5.7,1.9,12.1,0.9,16.9-2.8
			c-1.2-1.2-2.4-2.4-3.7-3.7c-0.3-0.3-0.5-0.6-0.8-0.8c-0.4-0.3-0.2-0.2-0.8,0.1C22.3,38.9,20.3,39.5,18.3,39.5z"/>
		<path id="XMLID_157_" fill="#CEE2F5" d="M32.9,16.7l-4.7,4.7c1.2,1.8,1.9,4,1.9,6.3c0,2.3-0.7,4.5-1.9,6.3l4.7,4.7
			c2.3-3.1,3.7-6.9,3.7-11.1S35.2,19.7,32.9,16.7z"/>
	</g>
</g>
<path id="XMLID_125_" fill="#515F71" d="M220,37.4c-6,0-10.7-5.4-9.6-11.6c0.6-3.4,4-6.9,7.4-7.6c3.7-0.8,7.2,0.5,9.4,3
	c0.1,0.1,0.3,0.1,0.4,0c0.8-0.8,3.3-3.3,3.5-3.5c0.1-0.1,0.1-0.3,0-0.4c-2.9-3.2-7.2-5.1-11.9-4.9c-7.7,0.4-14.1,6.7-14.5,14.4
	c-0.4,8.7,6.5,15.9,15.2,15.9c4.4,0,8.4-1.9,11.2-4.9c0.1-0.1,0.1-0.2,0-0.3c-0.6-0.6-2.8-2.8-3.5-3.5c-0.1-0.1-0.3-0.1-0.4,0
	C225.5,36.2,222.9,37.4,220,37.4z"/>
</svg>
