<?xml version="1.0" encoding="utf-8"?>
<!-- Generator: Adobe Illustrator 19.0.0, SVG Export Plug-In . SVG Version: 6.00 Build 0)  -->
<svg version="1.1" id="Layer_1" xmlns="http://www.w3.org/2000/svg" xmlns:xlink="http://www.w3.org/1999/xlink" x="0px" y="0px"
	 viewBox="0 0 30.9 30.9" enable-background="new 0 0 30.9 30.9" xml:space="preserve">
<g id="XMLID_62_">
	<path id="XMLID_64_" fill="#010101" d="M15.5,30.9C6.9,30.9,0,24,0,15.5S6.9,0,15.5,0s15.5,6.9,15.5,15.5S24,30.9,15.5,30.9z
		 M15.5,1.5c-7.7,0-14,6.3-14,14s6.3,14,14,14s14-6.3,14-14S23.1,1.5,15.5,1.5z"/>
</g>
<g id="XMLID_60_">
	<path id="XMLID_61_" fill="#010101" d="M15.5,24.5c-0.6,0-1-0.4-1-1V7.4c0-0.6,0.4-1,1-1s1,0.4,1,1v16.1
		C16.5,24.1,16,24.5,15.5,24.5z"/>
</g>
<g id="XMLID_56_">
	<path id="XMLID_59_" fill="#010101" d="M23.5,16.5H7.4c-0.6,0-1-0.4-1-1s0.4-1,1-1h16.1c0.6,0,1,0.4,1,1S24.1,16.5,23.5,16.5z"/>
</g>
</svg>
