<?xml version="1.0" encoding="utf-8"?>
<!-- Generator: Adobe Illustrator 19.1.0, SVG Export Plug-In . SVG Version: 6.00 Build 0)  -->
<svg version="1.1" id="Layer_1" xmlns="http://www.w3.org/2000/svg" xmlns:xlink="http://www.w3.org/1999/xlink" x="0px" y="0px"
	 viewBox="0 0 54 58.1" style="enable-background:new 0 0 54 58.1;" xml:space="preserve">
<g>
	<path d="M52.9,26.6H39.6v-6.5c0-0.6-0.5-1-1-1H15.4c-0.6,0-1,0.5-1,1v6.5h-3.8v-2.5c0-0.6-0.5-1-1-1H2.9c-0.6,0-1,0.5-1,1v2.5H1.1
		c-0.6,0-1,0.5-1,1V57c0,0.6,0.5,1,1,1h51.9c0.6,0,1-0.5,1-1V27.6C54,27.1,53.5,26.6,52.9,26.6z M8.6,25.1v1.3H3.9v-1.3H8.6z
		 M51.9,35.6V56H2.1V35.6H51.9z M16.4,27.6v-6.5h21.1v6.5c0,0.6,0.5,1,1,1h13.3v5H2.1v-5h13.3C16,28.6,16.4,28.2,16.4,27.6z"/>
	<path d="M27,54.6c4.8,0,8.7-3.9,8.7-8.7c0-4.8-3.9-8.7-8.7-8.7c-4.8,0-8.7,3.9-8.7,8.7C18.3,50.7,22.2,54.6,27,54.6z M27,38.6
		c4,0,7.3,3.3,7.3,7.3c0,4-3.3,7.3-7.3,7.3c-4,0-7.3-3.3-7.3-7.3C19.7,41.9,23,38.6,27,38.6z"/>
	<path d="M27,51.2c2.9,0,5.3-2.4,5.3-5.3c0-2.9-2.4-5.3-5.3-5.3c-2.9,0-5.3,2.4-5.3,5.3C21.7,48.8,24.1,51.2,27,51.2z M27,42
		c2.2,0,3.9,1.8,3.9,3.9c0,2.2-1.8,3.9-3.9,3.9s-3.9-1.8-3.9-3.9C23.1,43.8,24.8,42,27,42z"/>
	<path d="M47.9,41.2c1.1,0,1.9-0.9,1.9-1.9c0-1.1-0.9-1.9-1.9-1.9c-1.1,0-1.9,0.9-1.9,1.9C46,40.4,46.8,41.2,47.9,41.2z M47.9,38.8
		c0.3,0,0.6,0.2,0.6,0.6c0,0.3-0.2,0.6-0.6,0.6s-0.6-0.2-0.6-0.6C47.3,39,47.6,38.8,47.9,38.8z"/>
	<path d="M19.8,31.2h14.5c0.4,0,0.7-0.3,0.7-0.7v-6.5c0-0.4-0.3-0.7-0.7-0.7H19.8c-0.4,0-0.7,0.3-0.7,0.7v6.5
		C19.1,30.9,19.4,31.2,19.8,31.2z M20.5,24.8h13.1v5.1H20.5V24.8z"/>
</g>
</svg>
