<?xml version="1.0" encoding="utf-8"?>
<!-- Generator: Adobe Illustrator 19.0.0, SVG Export Plug-In . SVG Version: 6.00 Build 0)  -->
<svg version="1.1" id="Layer_1" xmlns="http://www.w3.org/2000/svg" xmlns:xlink="http://www.w3.org/1999/xlink" x="0px" y="0px"
	 viewBox="0 0 48.7 30.9" enable-background="new 0 0 48.7 30.9" xml:space="preserve">
<g id="XMLID_54_">
	<path id="XMLID_129_" fill="#010101" d="M18.9,18c0.1,0.1,0.3,0.1,0.4,0.1c0.2,0,0.4-0.1,0.6-0.3c0.2-0.3,0.2-0.8-0.1-1l-3.5-2.7
		l3.5-2.7c0.3-0.2,0.4-0.7,0.1-1c-0.2-0.3-0.7-0.4-1-0.1l-4.2,3.3c-0.2,0.1-0.3,0.3-0.3,0.6s0.1,0.4,0.3,0.6L18.9,18z"/>
	<path id="XMLID_130_" fill="#010101" d="M28.8,17.9c0.1,0.2,0.3,0.3,0.6,0.3c0.2,0,0.3,0,0.4-0.1l4.2-3.3c0.2-0.1,0.3-0.3,0.3-0.6
		s-0.1-0.4-0.3-0.6l-4.2-3.3c-0.3-0.2-0.8-0.2-1,0.1c-0.2,0.3-0.2,0.8,0.1,1l3.5,2.7l-3.5,2.7C28.6,17.1,28.6,17.6,28.8,17.9z"/>
	<path id="XMLID_131_" fill="#010101" d="M27.4,20.2c0.1,0.2,0.4,0.3,0.6,0.3c0.1,0,0.3,0,0.4-0.1c0.3-0.2,0.4-0.6,0.2-1L21.3,8.2
		c-0.2-0.3-0.6-0.4-1-0.2c-0.3,0.2-0.4,0.6-0.2,1L27.4,20.2z"/>
	<path id="XMLID_134_" fill="#010101" d="M48,26.7h-4.8v-26c0-0.4-0.3-0.7-0.7-0.7H6.3C5.9,0,5.6,0.3,5.6,0.7v26H0.7
		C0.3,26.7,0,27,0,27.4c0,1.3,0.6,3.5,4.5,3.5h39.7c3.9,0,4.5-2.2,4.5-3.5C48.7,27,48.3,26.7,48,26.7z M7,1.4h34.7v25.3H7V1.4z
		 M44.2,29.5H4.5c-2.1,0-2.8-0.7-3-1.3h4.7c0,0,0,0,0,0s0,0,0,0h36c0,0,0,0,0,0s0,0,0,0h4.7C47,28.7,46.3,29.5,44.2,29.5z"/>
	<path id="XMLID_138_" fill="#010101" d="M39.5,2.8H9.2c-0.4,0-0.7,0.3-0.7,0.7v21.2c0,0.4,0.3,0.7,0.7,0.7h30.4
		c0.4,0,0.7-0.3,0.7-0.7V3.5C40.2,3.1,39.9,2.8,39.5,2.8z M38.8,24H9.9V4.2h28.9V24z"/>
</g>
</svg>
