<?xml version="1.0" encoding="utf-8"?>
<!-- Generator: Adobe Illustrator 19.0.0, SVG Export Plug-In . SVG Version: 6.00 Build 0)  -->
<svg version="1.1" id="Layer_1" xmlns="http://www.w3.org/2000/svg" xmlns:xlink="http://www.w3.org/1999/xlink" x="0px" y="0px"
	 viewBox="0 0 48.7 30.9" enable-background="new 0 0 48.7 30.9" xml:space="preserve">
<g id="XMLID_54_">
	<path id="XMLID_103_" fill="#010101" d="M48,26.7h-4.8v-26c0-0.4-0.3-0.7-0.7-0.7H6.3C5.9,0,5.6,0.3,5.6,0.7v26H0.7
		C0.3,26.7,0,27,0,27.4c0,1.3,0.6,3.5,4.5,3.5h39.7c3.9,0,4.5-2.2,4.5-3.5C48.7,27,48.4,26.7,48,26.7z M7,1.4h34.7v25.3H7V1.4z
		 M44.2,29.5H4.5c-2.1,0-2.8-0.7-3-1.3h4.7c0,0,0,0,0,0s0,0,0,0h36.1c0,0,0,0,0,0s0,0,0,0h4.7C47,28.8,46.3,29.5,44.2,29.5z"/>
	<path id="XMLID_107_" fill="#010101" d="M39.5,2.8H9.2c-0.4,0-0.7,0.3-0.7,0.7v21.2c0,0.4,0.3,0.7,0.7,0.7h30.4
		c0.4,0,0.7-0.3,0.7-0.7V3.5C40.2,3.1,39.9,2.8,39.5,2.8z M38.8,24h-29V4.2h29V24z"/>
	<path id="XMLID_110_" fill="#010101" d="M24.3,20.5c3.5,0,6.4-2.9,6.4-6.4c0-3.5-2.9-6.4-6.4-6.4c-3.5,0-6.4,2.9-6.4,6.4
		C18,17.7,20.8,20.5,24.3,20.5z M24.3,9.2c2.7,0,5,2.2,5,5c0,2.7-2.2,5-5,5c-2.7,0-5-2.2-5-5C19.4,11.4,21.6,9.2,24.3,9.2z"/>
	<path id="XMLID_111_" fill="#010101" d="M23.4,15.1v2.2c0,0.5,0.4,0.9,0.9,0.9c0.5,0,0.9-0.4,0.9-0.9v-2.2h2.2
		c0.5,0,0.9-0.4,0.9-0.9c0-0.5-0.4-0.9-0.9-0.9h-2.2V11c0-0.5-0.4-0.9-0.9-0.9c-0.5,0-0.9,0.4-0.9,0.9v2.2h-2.2
		c-0.5,0-0.9,0.4-0.9,0.9c0,0.5,0.4,0.9,0.9,0.9H23.4z"/>
</g>
</svg>
