<?xml version="1.0" encoding="utf-8"?>
<!-- Generator: Adobe Illustrator 19.1.0, SVG Export Plug-In . SVG Version: 6.00 Build 0)  -->
<svg version="1.1" id="Layer_1" xmlns="http://www.w3.org/2000/svg" xmlns:xlink="http://www.w3.org/1999/xlink" x="0px" y="0px"
	 viewBox="0 0 31 31" style="enable-background:new 0 0 31 31;" xml:space="preserve">
<style type="text/css">
	.st0{fill:#010002;}
</style>
<path class="st0" d="M15.9,0.3C7.8,0.3,1.2,6.9,1.2,15.1s6.6,14.7,14.7,14.7s14.7-6.6,14.7-14.7C30.6,6.9,24,0.3,15.9,0.3z
	 M12.5,18.3c0.4,0.4,0.4,1,0,1.4c-0.2,0.2-0.4,0.3-0.7,0.3c-0.3,0-0.5-0.1-0.7-0.3l-4-4c-0.4-0.4-0.4-1,0-1.4l4-4
	c0.4-0.4,1-0.4,1.4,0c0.4,0.4,0.4,1,0,1.4L9.2,15L12.5,18.3z M19.2,10.5l-4,9.9C15,20.8,14.7,21,14.3,21c-0.1,0-0.2,0-0.4-0.1
	c-0.5-0.2-0.7-0.8-0.5-1.3l4-9.9c0.2-0.5,0.8-0.7,1.3-0.5l0,0C19.2,9.4,19.4,10,19.2,10.5z M25.4,15.6l-4,4
	c-0.2,0.2-0.4,0.3-0.7,0.3s-0.5-0.1-0.7-0.3c-0.4-0.4-0.4-1,0-1.4l3.3-3.3l-3.3-3.3c-0.4-0.4-0.4-1,0-1.4c0.4-0.4,1-0.4,1.4,0l4,4
	C25.8,14.6,25.8,15.2,25.4,15.6z"/>
</svg>
