<?xml version="1.0" encoding="utf-8"?>
<!-- Generator: Adobe Illustrator 19.1.0, SVG Export Plug-In . SVG Version: 6.00 Build 0)  -->
<svg version="1.1" id="Layer_1" xmlns="http://www.w3.org/2000/svg" xmlns:xlink="http://www.w3.org/1999/xlink" x="0px" y="0px"
	 viewBox="-184 185 31 31" style="enable-background:new -184 185 31 31;" xml:space="preserve">
<style type="text/css">
	.st0{fill:none;}
</style>
<g>
	<path class="st0" d="M-175.7,196.4v16.1c2.1,1.3,4.6,2,7.2,2s5.1-0.7,7.2-2v-16.1H-175.7z M-167.6,198.9h4.6c0.2,0,0.3,0.1,0.3,0.3
		s-0.1,0.3-0.3,0.3h-4.6c-0.2,0-0.3-0.1-0.3-0.3S-167.8,198.9-167.6,198.9z M-173.1,202.6c0.1,0,0.2,0,0.3,0.1
		c0.3,0.2,0.7,0.4,1,0.4v-1.3c-1.1-0.3-1.7-0.7-1.7-1.7c0-0.9,0.7-1.5,1.7-1.6v-0.1c0-0.2,0.2-0.4,0.4-0.4c0.2,0,0.4,0.2,0.4,0.4
		v0.1c0.4,0.1,0.8,0.2,1.2,0.4c0.2,0.1,0.3,0.2,0.3,0.5c0,0.3-0.2,0.5-0.5,0.5c-0.1,0-0.2,0-0.3-0.1c-0.2-0.1-0.4-0.2-0.7-0.3v1.2
		c1.2,0.3,1.7,0.8,1.7,1.7c0,0.9-0.7,1.6-1.7,1.7v0.4c0,0.2-0.2,0.4-0.4,0.4c-0.2,0-0.4-0.2-0.4-0.4v-0.4c-0.6-0.1-1.1-0.3-1.6-0.6
		c-0.2-0.1-0.3-0.3-0.3-0.5C-173.6,202.8-173.4,202.6-173.1,202.6z M-163,212.4h-10.6c-0.2,0-0.3-0.1-0.3-0.3c0-0.2,0.1-0.3,0.3-0.3
		h10.6c0.2,0,0.3,0.1,0.3,0.3C-162.7,212.3-162.8,212.4-163,212.4z M-163,209.8h-10.6c-0.2,0-0.3-0.1-0.3-0.3s0.1-0.3,0.3-0.3h10.6
		c0.2,0,0.3,0.1,0.3,0.3S-162.8,209.8-163,209.8z M-163,207.2h-10.6c-0.2,0-0.3-0.1-0.3-0.3c0-0.2,0.1-0.3,0.3-0.3h10.6
		c0.2,0,0.3,0.1,0.3,0.3C-162.7,207.1-162.8,207.2-163,207.2z M-163,204.6h-4.6c-0.2,0-0.3-0.1-0.3-0.3s0.1-0.3,0.3-0.3h4.6
		c0.2,0,0.3,0.1,0.3,0.3S-162.8,204.6-163,204.6z M-163,202h-4.6c-0.2,0-0.3-0.1-0.3-0.3s0.1-0.3,0.3-0.3h4.6c0.2,0,0.3,0.1,0.3,0.3
		S-162.8,202-163,202z"/>
	<path class="st0" d="M-176.3,195.1h15.7c0.3,0,0.6,0.3,0.6,0.6v15.9c3.4-2.6,5.5-6.6,5.5-11.1c0-7.7-6.3-14-14-14s-14,6.3-14,14
		c0,4.5,2.2,8.6,5.5,11.1v-15.9C-177,195.4-176.7,195.1-176.3,195.1z"/>
	<path class="st0" d="M-171.8,199.6c-0.4,0.1-0.5,0.2-0.5,0.5c0,0.2,0.1,0.4,0.5,0.6V199.6z"/>
	<path class="st0" d="M-170.5,202.6c0-0.3-0.1-0.4-0.6-0.6v1.1C-170.6,203.1-170.5,202.9-170.5,202.6z"/>
	<path class="st0" d="M-164.6,215.9l0.5-0.5c-0.3,0.1-0.6,0.2-0.9,0.2L-164.6,215.9z"/>
	<path class="st0" d="M-172.4,215.9l0.3-0.3c-0.3-0.1-0.6-0.1-0.9-0.2L-172.4,215.9z"/>
	<path d="M-175.7,196.4h14.4v16.1c0.4-0.3,0.8-0.5,1.2-0.8v-16c0-0.3-0.3-0.6-0.6-0.6h-15.6c-0.3,0-0.6,0.3-0.6,0.6v15.9
		c0.4,0.3,0.8,0.6,1.2,0.8V196.4z"/>
	<path d="M-173.4,203.6c0.5,0.3,1,0.5,1.6,0.6v0.4c0,0.2,0.2,0.4,0.4,0.4c0.2,0,0.4-0.2,0.4-0.4v-0.4c1-0.1,1.7-0.7,1.7-1.6
		c0-0.9-0.5-1.4-1.7-1.7v-1.2c0.2,0.1,0.4,0.2,0.7,0.3c0.1,0,0.2,0.1,0.3,0.1c0.3,0,0.5-0.2,0.5-0.5c0-0.2-0.1-0.4-0.3-0.5
		c-0.3-0.2-0.7-0.3-1.2-0.4v-0.1c0-0.2-0.2-0.4-0.4-0.4c-0.2,0-0.4,0.2-0.4,0.4v0.1c-1,0.1-1.7,0.7-1.7,1.6c0,0.9,0.6,1.4,1.7,1.7
		v1.3c-0.4-0.1-0.7-0.2-1-0.4c-0.1-0.1-0.2-0.1-0.3-0.1c-0.3,0-0.5,0.2-0.5,0.5C-173.6,203.3-173.5,203.5-173.4,203.6z M-171,202
		c0.4,0.2,0.6,0.3,0.6,0.6c0,0.3-0.2,0.5-0.6,0.5V202z M-172.3,200.1c0-0.3,0.2-0.4,0.5-0.5v1.1
		C-172.2,200.5-172.3,200.3-172.3,200.1z"/>
	<path d="M-167.6,199.4h4.6c0.2,0,0.3-0.1,0.3-0.3c0-0.2-0.1-0.3-0.3-0.3h-4.6c-0.2,0-0.3,0.1-0.3,0.3
		C-167.9,199.3-167.8,199.4-167.6,199.4z"/>
	<path d="M-163,201.5h-4.6c-0.2,0-0.3,0.1-0.3,0.3s0.1,0.3,0.3,0.3h4.6c0.2,0,0.3-0.1,0.3-0.3S-162.8,201.5-163,201.5z"/>
	<path d="M-163,204.1h-4.6c-0.2,0-0.3,0.1-0.3,0.3c0,0.2,0.1,0.3,0.3,0.3h4.6c0.2,0,0.3-0.1,0.3-0.3
		C-162.7,204.2-162.8,204.1-163,204.1z"/>
	<path d="M-163,206.7h-10.6c-0.2,0-0.3,0.1-0.3,0.3s0.1,0.3,0.3,0.3h10.6c0.2,0,0.3-0.1,0.3-0.3S-162.8,206.7-163,206.7z"/>
	<path d="M-163,209.3h-10.6c-0.2,0-0.3,0.1-0.3,0.3c0,0.2,0.1,0.3,0.3,0.3h10.6c0.2,0,0.3-0.1,0.3-0.3
		C-162.7,209.4-162.8,209.3-163,209.3z"/>
	<path d="M-163,211.9h-10.6c-0.2,0-0.3,0.1-0.3,0.3s0.1,0.3,0.3,0.3h10.6c0.2,0,0.3-0.1,0.3-0.3S-162.8,211.9-163,211.9z"/>
	<path d="M-175.7,212.5v1.7c0.5,0.3,1.1,0.5,1.7,0.7c0.1-0.1,0.2-0.1,0.3-0.1c0.2,0,0.3,0.1,0.4,0.2l0.3,0.3
		c0.3,0.1,0.6,0.2,0.9,0.2l0.6-0.5c0.2-0.2,0.6-0.2,0.9,0l0.9,0.9l0.9-0.9c0.2-0.2,0.6-0.2,0.9,0l0.9,0.9l0.9-0.9
		c0.2-0.2,0.6-0.2,0.9,0l0.6,0.5c0.3-0.1,0.6-0.1,0.9-0.2l0.3-0.3c0.2-0.2,0.5-0.2,0.8-0.1c0.6-0.2,1.1-0.5,1.7-0.7v-1.7
		c-2.1,1.3-4.6,2-7.2,2C-170.7,214.5-173.6,213.8-175.7,212.5z"/>
	<path d="M-153,200.5c0-8.5-6.9-15.5-15.5-15.5s-15.5,7-15.5,15.5c0,5.4,2.8,10.2,7,13v-1.8c-3.3-2.6-5.5-6.7-5.5-11.2
		c0-7.7,6.3-14,14-14s14,6.3,14,14c0,4.5-2.2,8.6-5.5,11.1v1.8C-155.8,210.7-153,205.9-153,200.5z"/>
	<path d="M-166.3,215l-0.9,0.9l-0.9-0.9c-0.2-0.2-0.6-0.2-0.9,0l-0.9,0.9l-0.8-0.9c-0.2-0.2-0.6-0.2-0.9,0l-0.6,0.5
		c1.2,0.3,2.4,0.4,3.6,0.4c1.2,0,2.4-0.2,3.6-0.4l-0.4-0.5C-165.7,214.8-166.1,214.8-166.3,215z"/>
	<path d="M-161.3,212.5v1.7c0.4-0.2,0.8-0.5,1.2-0.7v-1.8C-160.4,211.9-160.8,212.2-161.3,212.5z"/>
	<path d="M-175.7,212.5c-0.4-0.3-0.8-0.5-1.2-0.8v1.8c0.4,0.3,0.8,0.5,1.2,0.7V212.5z"/>
	<path d="M-173.7,214.9c-0.1,0-0.2,0-0.3,0.1c0.4,0.1,0.7,0.3,1.1,0.4l-0.4-0.4C-173.4,214.9-173.6,214.9-173.7,214.9z"/>
	<path d="M-163.7,215l-0.3,0.4c0.4-0.1,0.7-0.2,1.1-0.4C-163.2,214.8-163.5,214.8-163.7,215z"/>
</g>
</svg>
