<?xml version="1.0" encoding="utf-8"?>
<!-- Generator: Adobe Illustrator 19.0.0, SVG Export Plug-In . SVG Version: 6.00 Build 0)  -->
<svg version="1.1" id="Layer_1" xmlns="http://www.w3.org/2000/svg" xmlns:xlink="http://www.w3.org/1999/xlink" x="0px" y="0px"
	 viewBox="0 0 29.8 29.6" enable-background="new 0 0 29.8 29.6" xml:space="preserve">
<g>
	<path fill="#010101" d="M29.3,11.1L25,10.1c0-0.1-0.1-0.2-0.1-0.3l2-3.3c0.2-0.3,0.1-0.6-0.1-0.8L24,2.9c-0.1-0.1-0.3-0.2-0.5-0.2
		c-0.1,0-0.2,0-0.4,0.1l-3.2,2.1c-0.1,0-0.2-0.1-0.3-0.1l-1.1-4.3C18.4,0.2,18.2,0,17.9,0h-6c-0.3,0-0.5,0.2-0.6,0.5l-1.1,4.3
		C10,4.8,10,4.9,9.9,4.9L6.6,2.8C6.5,2.7,6.4,2.7,6.3,2.7C6.1,2.7,6,2.8,5.8,2.9L3,5.7C2.8,5.9,2.7,6.3,2.9,6.5l2,3.3
		c0,0.1-0.1,0.2-0.1,0.3l-4.2,0.9C0.2,11.1,0,11.4,0,11.7v6.2c0,0.3,0.2,0.6,0.5,0.6l4.2,0.9c0,0.1,0.1,0.2,0.1,0.3l-2,3.3
		c-0.2,0.3-0.1,0.6,0.1,0.8l2.9,2.9c0.1,0.1,0.3,0.2,0.5,0.2c0.1,0,0.2,0,0.4-0.1l3.2-2.1c0.1,0,0.2,0.1,0.3,0.1l1.1,4.3
		c0.1,0.3,0.3,0.5,0.6,0.5h6c0.3,0,0.5-0.2,0.6-0.5l1.1-4.3c0.1,0,0.2-0.1,0.3-0.1l3.2,2.1c0.1,0.1,0.2,0.1,0.4,0.1
		c0.2,0,0.3-0.1,0.5-0.2l2.9-2.9c0.2-0.2,0.2-0.5,0.1-0.8l-2-3.3c0-0.1,0.1-0.2,0.1-0.3l4.2-0.9c0.3-0.1,0.5-0.3,0.5-0.6v-6.2
		C29.8,11.4,29.6,11.1,29.3,11.1z M24,18.7c-0.1,0.3-0.3,0.6-0.4,0.8c-0.1,0.2-0.1,0.4,0,0.6l1.9,3.2l-2.1,2.1l-3.1-2
		c-0.1-0.1-0.2-0.1-0.4-0.1c-0.1,0-0.2,0-0.3,0.1c-0.3,0.1-0.5,0.3-0.8,0.4c-0.2,0.1-0.3,0.2-0.4,0.4l-1.1,4.1h-5l-1.1-4.1
		c-0.1-0.2-0.2-0.3-0.4-0.4c-0.3-0.1-0.5-0.2-0.8-0.4c-0.1-0.1-0.2-0.1-0.3-0.1c-0.1,0-0.2,0-0.4,0.1l-3.1,2l-2.1-2.1l1.9-3.2
		c0.1-0.2,0.1-0.4,0-0.6C6,19.2,5.9,19,5.8,18.7c-0.1-0.2-0.3-0.3-0.4-0.4l-4-0.9v-5.2l4-0.9c0.2,0,0.4-0.2,0.5-0.4
		c0.1-0.3,0.3-0.6,0.4-0.8c0.1-0.2,0.1-0.4,0-0.6L4.2,6.3l2.1-2.1l3.1,2c0.1,0.1,0.2,0.1,0.4,0.1c0.1,0,0.2,0,0.3-0.1
		c0.3-0.1,0.5-0.3,0.8-0.4c0.2-0.1,0.3-0.2,0.4-0.4l1.1-4.1h5l1.1,4.1c0.1,0.2,0.2,0.3,0.4,0.4c0.3,0.1,0.5,0.2,0.8,0.4
		c0.1,0.1,0.2,0.1,0.3,0.1c0.1,0,0.2,0,0.4-0.1l3.1-2l2.1,2.1l-1.9,3.2c-0.1,0.2-0.1,0.4,0,0.6c0.1,0.3,0.3,0.5,0.4,0.8
		c0.1,0.2,0.2,0.3,0.4,0.4l4,0.9v5.2l-4,0.9C24.3,18.4,24.1,18.5,24,18.7z"/>
	<path fill="#010101" d="M14.9,8.4c-3.5,0-6.4,2.9-6.4,6.4c0,3.5,2.9,6.4,6.4,6.4s6.4-2.9,6.4-6.4C21.3,11.3,18.4,8.4,14.9,8.4z
		 M14.9,19.9c-2.8,0-5.1-2.3-5.1-5.1c0-2.8,2.3-5.1,5.1-5.1c2.8,0,5.1,2.3,5.1,5.1C19.9,17.6,17.7,19.9,14.9,19.9z"/>
</g>
</svg>
