<?xml version="1.0" encoding="utf-8"?>
<!-- Generator: Adobe Illustrator 19.0.0, SVG Export Plug-In . SVG Version: 6.00 Build 0)  -->
<svg version="1.1" id="Layer_1" xmlns="http://www.w3.org/2000/svg" xmlns:xlink="http://www.w3.org/1999/xlink" x="0px" y="0px"
	 viewBox="0 0 27 30.9" enable-background="new 0 0 27 30.9" xml:space="preserve">
<g id="XMLID_38_">
	<g id="XMLID_39_">
		<path id="XMLID_40_" fill="#010101" d="M17.3,27.2H10c-0.3,0-0.6-0.3-0.6-0.6V25c0-1.2-0.5-2.3-1.4-3c-2.6-2.1-3.8-5.3-3.3-8.5
			c0.7-3.9,4-6.9,8-7.3c2.5-0.2,4.9,0.6,6.8,2.3c1.8,1.7,2.9,4.1,2.9,6.6c0,2.6-1.2,5.1-3.2,6.8c-0.9,0.7-1.4,1.8-1.4,3v1.9
			C17.9,27,17.6,27.2,17.3,27.2z M10.6,26h6.1v-1.3c0-1.5,0.7-2.9,1.8-3.9c1.7-1.5,2.7-3.6,2.7-5.9c0-2.1-0.9-4.2-2.5-5.7
			c-1.6-1.5-3.7-2.2-5.9-2c-3.4,0.3-6.3,3-6.9,6.3c-0.5,2.7,0.6,5.5,2.8,7.3c1.2,0.9,1.8,2.4,1.8,3.9V26z"/>
	</g>
</g>
<g id="XMLID_28_">
	<g id="XMLID_35_">
		<g id="XMLID_36_">
			<path id="XMLID_37_" fill="#010101" d="M13.5,20.2c-0.3,0-0.6-0.3-0.6-0.6c0-0.9-0.7-1.6-1.6-1.6c-0.3,0-0.6-0.3-0.6-0.6
				s0.3-0.6,0.6-0.6c1.5,0,2.8,1.2,2.8,2.8C14.1,19.9,13.9,20.2,13.5,20.2z"/>
		</g>
	</g>
	<g id="XMLID_32_">
		<g id="XMLID_33_">
			<path id="XMLID_34_" fill="#010101" d="M13.5,20.2c-0.3,0-0.6-0.3-0.6-0.6c0-1.5,1.2-2.8,2.8-2.8c0.3,0,0.6,0.3,0.6,0.6
				S16,18,15.7,18c-0.9,0-1.6,0.7-1.6,1.6C14.1,19.9,13.9,20.2,13.5,20.2z"/>
		</g>
	</g>
	<g id="XMLID_29_">
		<g id="XMLID_30_">
			<path id="XMLID_31_" fill="#010101" d="M13.5,25.5c-0.3,0-0.6-0.3-0.6-0.6v-5.2c0-0.3,0.3-0.6,0.6-0.6s0.6,0.3,0.6,0.6v5.2
				C14.1,25.3,13.9,25.5,13.5,25.5z"/>
		</g>
	</g>
</g>
<g id="XMLID_23_">
	<g id="XMLID_24_">
		<path id="XMLID_25_" fill="#010101" d="M17.3,30.9H10c-0.3,0-0.6-0.3-0.6-0.6v-1.9c0-0.3,0.3-0.6,0.6-0.6h7.3
			c0.3,0,0.6,0.3,0.6,0.6v1.9C17.9,30.6,17.6,30.9,17.3,30.9z M10.6,29.7h6.1V29h-6.1V29.7z"/>
	</g>
</g>
<g id="XMLID_20_">
	<g id="XMLID_21_">
		<path id="XMLID_22_" fill="#010101" d="M13.7,3.8c-0.4,0-0.8-0.4-0.8-0.8V0.9c0-0.4,0.4-0.8,0.8-0.8s0.8,0.4,0.8,0.8V3
			C14.5,3.4,14.1,3.8,13.7,3.8z"/>
	</g>
</g>
<g id="XMLID_17_">
	<g id="XMLID_18_">
		<path id="XMLID_19_" fill="#010101" d="M21.7,7.4c-0.2,0-0.4-0.1-0.6-0.2c-0.3-0.3-0.3-0.8,0-1.1l1.6-1.6c0.3-0.3,0.8-0.3,1.1,0
			c0.3,0.3,0.3,0.8,0,1.1l-1.6,1.6C22.1,7.4,21.9,7.4,21.7,7.4z"/>
	</g>
</g>
<g id="XMLID_14_">
	<g id="XMLID_15_">
		<path id="XMLID_16_" fill="#010101" d="M18.1,4.8c-0.1,0-0.2,0-0.3-0.1c-0.4-0.2-0.6-0.6-0.4-1.1l0.8-1.9c0.2-0.4,0.6-0.6,1.1-0.4
			c0.4,0.2,0.6,0.6,0.4,1.1l-0.8,1.9C18.7,4.6,18.4,4.8,18.1,4.8z"/>
	</g>
</g>
<g id="XMLID_11_">
	<g id="XMLID_12_">
		<path id="XMLID_13_" fill="#010101" d="M2.7,11c-0.1,0-0.2,0-0.3-0.1l-1.9-0.8C0.1,10-0.1,9.5,0.1,9.1c0.2-0.4,0.6-0.6,1.1-0.4
			L3,9.5c0.4,0.2,0.6,0.6,0.4,1.1C3.3,10.9,3,11,2.7,11z"/>
	</g>
</g>
<g id="XMLID_8_">
	<g id="XMLID_9_">
		<path id="XMLID_10_" fill="#010101" d="M8.9,4.8c-0.3,0-0.6-0.2-0.7-0.5L7.3,2.5C7.1,2,7.3,1.6,7.7,1.4c0.4-0.2,0.9,0,1.1,0.4
			l0.8,1.8c0.2,0.4,0,0.9-0.4,1.1C9.1,4.8,9,4.8,8.9,4.8z"/>
	</g>
</g>
<g id="XMLID_5_">
	<g id="XMLID_6_">
		<path id="XMLID_7_" fill="#010101" d="M24.1,11c-0.3,0-0.6-0.2-0.7-0.5c-0.2-0.4,0-0.9,0.4-1.1l2.1-0.9c0.4-0.2,0.9,0,1.1,0.4
			c0.2,0.4,0,0.9-0.4,1.1L24.4,11C24.3,11,24.2,11,24.1,11z"/>
	</g>
</g>
<g id="XMLID_2_">
	<g id="XMLID_3_">
		<path id="XMLID_4_" fill="#010101" d="M5.1,7.2c-0.2,0-0.4-0.1-0.6-0.2L3.2,5.6c-0.3-0.3-0.3-0.8,0-1.1c0.3-0.3,0.8-0.3,1.1,0
			l1.3,1.3C6,6.1,6,6.6,5.7,6.9C5.5,7.1,5.3,7.2,5.1,7.2z"/>
	</g>
</g>
</svg>
