<?xml version="1.0" encoding="utf-8"?>
<!-- Generator: Adobe Illustrator 19.1.0, SVG Export Plug-In . SVG Version: 6.00 Build 0)  -->
<svg version="1.1" id="Layer_1" xmlns="http://www.w3.org/2000/svg" xmlns:xlink="http://www.w3.org/1999/xlink" x="0px" y="0px"
	 viewBox="-184 185 31 31" style="enable-background:new -184 185 31 31;" xml:space="preserve">
<style type="text/css">
	.st0{fill:#010002;}
</style>
<path class="st0" d="M-167.9,185.3c-8.1,0-14.8,6.6-14.8,14.7s6.7,14.8,14.8,14.8c8.1,0,14.7-6.6,14.7-14.7
	C-153.2,191.9-159.8,185.3-167.9,185.3z M-166.5,203.6l-5.7,5.7c-0.2,0.2-0.6,0.4-0.9,0.4c-0.3,0-0.7-0.1-0.9-0.4l-3.2-3.2
	c-0.5-0.5-0.5-1.3,0-1.8l5.7-5.7c0.5-0.5,1.3-0.5,1.8,0l0.3,0.3c0.3,0.3,0.3,0.8,0,1.1c-0.3,0.3-0.8,0.3-1.1,0l-0.1-0.1l-5.2,5.2
	l2.7,2.7l5.2-5.2h-0.1c-0.1-0.2-0.2-0.4-0.2-0.6s0.1-0.4,0.2-0.6c0.2-0.2,0.4-0.2,0.6-0.2l0,0c0.2,0,0.4,0.1,0.6,0.2l0.4,0.4
	c0.2,0.2,0.4,0.6,0.4,0.9C-166.2,203.1-166.3,203.4-166.5,203.6z M-165.1,196.5c0.2-0.2,0.6-0.2,0.8,0s0.2,0.6,0,0.8l-6.4,6.4
	c-0.2,0.2-0.6,0.2-0.8,0s-0.2-0.6,0-0.8L-165.1,196.5z M-158.6,195.8l-5.7,5.7c-0.2,0.2-0.6,0.4-0.9,0.4l0,0c-0.3,0-0.7-0.1-0.9-0.4
	l-0.3-0.3c-0.2-0.2-0.2-0.4-0.2-0.6c0-0.2,0.1-0.4,0.2-0.6c0.3-0.3,0.8-0.3,1.1,0l0.1,0.1l5.2-5.2l-2.7-2.7l-5.2,5.2l0.1,0.1
	c0.3,0.3,0.3,0.8,0,1.1c-0.3,0.3-0.8,0.3-1.1,0l-0.4-0.4c-0.5-0.5-0.5-1.3,0-1.8l5.7-5.7c0.5-0.5,1.3-0.5,1.8,0l3.2,3.3
	C-158.1,194.5-158.1,195.3-158.6,195.8z"/>
</svg>
