<?xml version="1.0" encoding="utf-8"?>
<!-- Generator: Adobe Illustrator 19.1.0, SVG Export Plug-In . SVG Version: 6.00 Build 0)  -->
<svg version="1.1" id="Layer_1" xmlns="http://www.w3.org/2000/svg" xmlns:xlink="http://www.w3.org/1999/xlink" x="0px" y="0px"
	 viewBox="-184 185 31 31" style="enable-background:new -184 185 31 31;" xml:space="preserve">
<style type="text/css">
	.st0{fill:#010002;}
</style>
<g>
	<path class="st0" d="M-168.3,201.6c-0.1,0.1-0.2,0.1-0.4,0.1s-0.3,0-0.4-0.1l-0.5-0.4l-5.5,4.3h12.8l-5.5-4.3L-168.3,201.6z"/>
	<polygon class="st0" points="-176.4,195.9 -176.4,204.9 -170.6,200.4 	"/>
	<polygon class="st0" points="-162.3,195.4 -175.1,195.4 -168.7,200.3 	"/>
	<path class="st0" d="M-168.7,185.7c-8.2,0-14.8,6.6-14.8,14.7c0,8.1,6.6,14.7,14.7,14.7c8.1,0,14.8-6.5,14.8-14.7
		C-154,192.3-160.6,185.7-168.7,185.7z M-159.3,206.4c0,0.5-0.4,0.9-0.9,0.9h-17c-0.5,0-0.9-0.4-0.9-0.9v-11.9
		c0-0.5,0.4-0.9,0.9-0.9h17.1c0.5,0,0.9,0.4,0.9,0.9v11.9H-159.3z"/>
	<polygon class="st0" points="-161.1,204.9 -161.1,196 -166.8,200.4 	"/>
</g>
</svg>
