<?xml version="1.0" encoding="utf-8"?>
<!-- Generator: Adobe Illustrator 19.0.0, SVG Export Plug-In . SVG Version: 6.00 Build 0)  -->
<svg version="1.1" id="Layer_1" xmlns="http://www.w3.org/2000/svg" xmlns:xlink="http://www.w3.org/1999/xlink" x="0px" y="0px"
	 viewBox="0 0 30.9 30.9" enable-background="new 0 0 30.9 30.9" xml:space="preserve">
<path fill="#010101" d="M20.5,8l-6.6,6.6c-1.9-1.2-4.4-1-6,0.7c-1.9,1.9-1.9,4.9,0,6.8s4.9,1.9,6.8,0c1.6-1.6,1.8-4.1,0.7-6l3.8-3.8
	l1,1c0.4,0.4,1.1,0.4,1.5,0c0.4-0.4,0.4-1.1,0-1.5l-1-1l0.6-0.6l1.4,1.4c0.4,0.4,1.1,0.4,1.5,0c0.4-0.4,0.4-1.1,0-1.5L22,8
	C21.6,7.6,20.9,7.6,20.5,8z M13.7,21.1c-1.3,1.3-3.5,1.3-4.8,0c-1.3-1.3-1.3-3.5,0-4.8c1.3-1.3,3.5-1.3,4.8,0
	C15,17.6,15,19.7,13.7,21.1z"/>
<g>
	<path fill="#010101" d="M15.5,30.9C6.9,30.9,0,24,0,15.5S6.9,0,15.5,0s15.5,6.9,15.5,15.5S24,30.9,15.5,30.9z M15.5,1.5
		c-7.7,0-14,6.3-14,14s6.3,14,14,14s14-6.3,14-14S23.1,1.5,15.5,1.5z"/>
</g>
</svg>
