<?xml version="1.0" encoding="utf-8"?>
<!-- Generator: Adobe Illustrator 19.0.0, SVG Export Plug-In . SVG Version: 6.00 Build 0)  -->
<svg version="1.1" id="Layer_1" xmlns="http://www.w3.org/2000/svg" xmlns:xlink="http://www.w3.org/1999/xlink" x="0px" y="0px"
	 viewBox="0 0 30.9 30.9" enable-background="new 0 0 30.9 30.9" xml:space="preserve">
<g id="XMLID_60_">
	<path id="XMLID_61_" fill="#010101" d="M15.4,17.4c-0.6,0-1-0.4-1-1V6.8c0-0.6,0.4-1,1-1s1,0.4,1,1v9.6C16.4,17,16,17.4,15.4,17.4z
		"/>
</g>
<g id="XMLID_58_">
	<circle id="XMLID_59_" fill="#010101" cx="15.5" cy="23.4" r="2.3"/>
</g>
<g id="XMLID_54_">
	<path id="XMLID_55_" fill="#010101" d="M15.5,30.9C6.9,30.9,0,24,0,15.5S6.9,0,15.5,0s15.5,6.9,15.5,15.5S24,30.9,15.5,30.9z
		 M15.5,1.5c-7.7,0-14,6.3-14,14s6.3,14,14,14s14-6.3,14-14S23.1,1.5,15.5,1.5z"/>
</g>
</svg>
