<?xml version="1.0" encoding="utf-8"?>
<!-- Generator: Adobe Illustrator 19.0.0, SVG Export Plug-In . SVG Version: 6.00 Build 0)  -->
<svg version="1.1" id="Layer_1" xmlns="http://www.w3.org/2000/svg" xmlns:xlink="http://www.w3.org/1999/xlink" x="0px" y="0px"
	 viewBox="0 0 40.6 30.9" enable-background="new 0 0 40.6 30.9" xml:space="preserve">
<g id="XMLID_54_">
	<circle id="XMLID_122_" fill="#010101" cx="8.3" cy="10.9" r="0.8"/>
	<path id="XMLID_125_" fill="#010101" d="M39.9,17.1c-0.6,0.1-1.2,0-1.7-0.2c0.4-0.9,0.6-2,0.3-2.9c-0.2-1.1-1.2-1.5-2-1.3
		c-0.8,0.1-1.6,0.9-1.4,1.9c0.1,1,0.6,2,1.4,2.7c-0.5,0.5-1.1,0.8-1.8,0.9c0.1-0.5,0.1-1,0.1-1.5C34.7,9.7,29.1,4,22.2,4h-7.8
		c-0.5-1.6-2.6-3.2-4.1-3.9C9.8,0,9.3-0.1,8.8,0.1C8.4,0.3,8,0.8,7.8,1.4c-0.2,0.5-0.1,1-0.1,1.5C7.8,3.7,7.9,4.7,7,6.7
		c-1.3,1-2.4,2.2-3.2,3.6H2.5c-1.4,0-2.5,1.1-2.5,2.5V17c0,1.3,1.1,2.4,2.4,2.5c0.7,3.1,2.6,5.9,5.3,7.6v1.4c0,1.4,1.1,2.5,2.5,2.5
		h4.2c1.1,0,2-0.7,2.3-1.7h5.2c0.3,1,1.3,1.7,2.3,1.7h4.2c1.4,0,2.5-1.1,2.5-2.5v-2.7c1.8-1.7,3.1-4,3.6-6.4c0.1,0,0.1,0,0.2,0
		c0,0,0.1,0,0.1,0c1.1-0.1,2-0.7,2.8-1.5c0.8,0.4,1.7,0.6,2.6,0.4c0.3,0,0.6-0.4,0.5-0.7C40.5,17.3,40.2,17.1,39.9,17.1z M29.8,25
		c-0.1,0.1-0.2,0.3-0.2,0.5v3c0,0.7-0.5,1.2-1.2,1.2h-4.2c-0.6,0-1.2-0.5-1.2-1.1c0-0.3-0.3-0.6-0.6-0.6c0,0,0,0,0,0
		c0,0-0.2,0-0.2,0h-6c-0.3,0-0.6,0.3-0.6,0.6c0,0.6-0.6,1.1-1.2,1.1h-4.2c-0.7,0-1.2-0.5-1.2-1.2v-1.7c0-0.2-0.1-0.4-0.3-0.5
		c-2.7-1.7-4.5-4.4-5.1-7.5c-0.1-0.3-0.3-0.5-0.6-0.5H2.5c-0.7,0-1.2-0.5-1.2-1.2v-4.2c0-0.7,0.5-1.2,1.2-1.2h1.7
		c0.2,0,0.4-0.1,0.6-0.3c0.8-1.4,1.8-2.7,3.1-3.6C7.9,7.5,8,7.5,8,7.4C9.2,5,9,3.7,9,2.8c0-0.4-0.1-0.7,0-0.9
		c0.1-0.3,0.2-0.5,0.4-0.5c0.1-0.1,0.3,0,0.5,0.1c1.7,0.7,3.4,2.4,3.4,3.3c0,0.3,0.3,0.6,0.6,0.6h8.3c6.2,0,11.3,5.1,11.3,11.3
		C33.5,19.8,32.1,22.9,29.8,25z M37.1,16.1c-0.5-0.5-0.8-1.1-0.8-1.8c-0.1-0.4,0.3-0.5,0.4-0.5c0,0,0.1,0,0.1,0
		c0.2,0,0.4,0.1,0.5,0.4C37.4,14.9,37.3,15.5,37.1,16.1z"/>
	<path id="XMLID_127_" fill="#010101" d="M23,6.1h-3.3c-0.3,0-0.6,0.3-0.6,0.6s0.3,0.6,0.6,0.6H23c1.6,0,3.1,0.6,4.3,1.8
		c0.1,0.1,0.3,0.2,0.4,0.2c0.2,0,0.3-0.1,0.4-0.2c0.2-0.2,0.2-0.6,0-0.9C26.8,6.9,25,6.1,23,6.1z"/>
</g>
</svg>
