<?xml version="1.0" encoding="utf-8"?>
<!-- Generator: Adobe Illustrator 19.0.0, SVG Export Plug-In . SVG Version: 6.00 Build 0)  -->
<svg version="1.1" id="Layer_1" xmlns="http://www.w3.org/2000/svg" xmlns:xlink="http://www.w3.org/1999/xlink" x="0px" y="0px"
	 viewBox="0 0 34.4 30.9" enable-background="new 0 0 34.4 30.9" xml:space="preserve">
<path id="XMLID_201_" fill="#010101" d="M19.8,9.4c1.3,0.7,3.5,1.6,5.8,1.6c0.8,0,1.7-0.1,2.5-0.4C32.5,9,34.3,3.3,34.3,3
	c0.1-0.3,0-0.6-0.3-0.7c-0.2-0.1-5.2-3.4-9.6-1.9c-3.2,1.2-5,4.7-5.7,6.5c-1.6-1.7-4.9-4.8-8.8-4.8c0,0,0,0,0,0
	C4.5,2.1,0.3,7.8,0.1,8c-0.2,0.2-0.2,0.5,0,0.8c0.2,0.2,4.4,5.9,9.8,5.9c0,0,0,0,0,0c3.8,0,7-2.7,8.6-4.5v15.6
	c-1.6,0.1-2.8,0.8-3.7,1.4c-1-0.7-2.2-1.1-3.4-1.1c-1.6,0-3,0.7-3.8,1.4C7,28,6.4,28.6,5.9,29.7c-0.1,0.3,0,0.7,0.3,0.8
	c0.1,0,0.2,0,0.2,0c0.3,0,0.5-0.1,0.6-0.4c0.3-0.8,0.8-1.2,1.4-1.7c0.7-0.5,1.7-1.1,3-1.1c0.9,0,1.7,0.3,2.3,0.6
	c-0.5,0.5-1,1.1-1.4,2c-0.1,0.3,0,0.7,0.3,0.8c0.3,0.1,0.7,0,0.8-0.3c0.4-1,0.9-1.5,1.7-2.1c0.8-0.6,2.1-1.4,3.7-1.4
	c1.6,0,2.9,0.7,3.7,1.3c0.7,0.5,1.3,1.1,1.7,2.1c0.1,0.2,0.3,0.4,0.6,0.4c0.1,0,0.2,0,0.2,0c0.3-0.1,0.5-0.5,0.3-0.8
	c-0.4-0.9-0.8-1.5-1.3-1.9c0.6-0.4,1.4-0.7,2.3-0.7c1.3,0,2.4,0.6,3,1.1c0.6,0.4,1,0.9,1.4,1.7c0.1,0.2,0.3,0.4,0.6,0.4
	c0.1,0,0.2,0,0.2,0c0.3-0.1,0.5-0.5,0.3-0.8c-0.5-1.1-1.2-1.8-1.8-2.2c-1.1-0.9-2.5-1.3-3.8-1.3c-1.4,0-2.6,0.5-3.4,1.1
	c-1.1-0.8-2.3-1.2-3.5-1.4V9.4z M25,1.7c3.1-1.1,6.8,0.8,8,1.5c-0.5,1.3-2.1,5.1-5.2,6.2c-2.4,0.9-5.3-0.1-7-0.9l5.9-2.3
	C27,6,27.2,5.6,27.1,5.3c-0.1-0.3-0.5-0.5-0.8-0.4l-6.2,2.3C20.8,5.5,22.3,2.6,25,1.7z M9.9,13.4C9.9,13.4,9.9,13.4,9.9,13.4
	c-4,0-7.5-3.8-8.5-5c1-1.2,4.5-5,8.5-5c0,0,0,0,0,0c3.3,0,6.2,2.6,7.7,4.2l-6.2,0c0,0,0,0,0,0c-0.4,0-0.6,0.4-0.6,0.7
	c0,0.4,0.3,0.8,0.6,0.8l6.2,0.2C16.2,10.8,13.2,13.4,9.9,13.4z"/>
</svg>
