<?xml version="1.0" encoding="utf-8"?>
<!-- Generator: Adobe Illustrator 19.0.0, SVG Export Plug-In . SVG Version: 6.00 Build 0)  -->
<svg version="1.1" id="Layer_1" xmlns="http://www.w3.org/2000/svg" xmlns:xlink="http://www.w3.org/1999/xlink" x="0px" y="0px"
	 viewBox="0 0 50.6 30.9" enable-background="new 0 0 50.6 30.9" xml:space="preserve">
<path id="XMLID_126_" fill="#010101" d="M45.2,20.4c-0.3-0.5-0.7-1-1.1-1.5C44,8.6,35.5,0.1,25.1,0.1C14.8,0.1,6.3,8.5,6.2,18.9
	l0,0.4c-0.3,0.3-0.6,0.7-0.8,1.1c-2.9-0.3-5.4,2-5.4,4.8c0,2.7,2.2,4.9,4.9,4.9c0.8,0,1.6-0.2,2.4-0.6c1.2,0.9,2.7,1.4,4.2,1.4
	c1.5,0,3-0.5,4.2-1.4c0.7,0.4,1.5,0.6,2.4,0.6c2.7,0,4.9-2.2,4.9-4.9c0-2.9-2.5-5.2-5.4-4.8c-0.2-0.3-0.6-1.2-0.6-1.3
	c0-4.6,3.7-8.3,8.3-8.3s8.3,3.7,8.3,8.3c0,0.2-0.1,1-0.2,1.3c-2.9-0.3-5.4,2-5.4,4.8c0,2.7,2.2,4.9,4.9,4.9c0.8,0,1.6-0.2,2.4-0.6
	c1.2,0.9,2.7,1.4,4.2,1.4c1.5,0,3-0.5,4.2-1.4c0.7,0.4,1.5,0.6,2.4,0.6c2.7,0,4.9-2.2,4.9-4.9C50.6,22.4,48.1,20.1,45.2,20.4z
	 M25.1,1.5c9.3,0,16.9,7.2,17.5,16.4c-0.9-0.5-2-0.8-3.1-0.9c-1.2-6.9-7.2-12.2-14.4-12.2c-7.2,0-13.2,5.3-14.4,12.2
	c-1.1,0.1-2.2,0.5-3.1,1.1C8.1,8.9,15.8,1.5,25.1,1.5z M17.2,21.8c2.2-0.5,4.3,1.3,4.3,3.4c0,1.9-1.6,3.5-3.5,3.5
	c-0.7,0-1.4-0.2-2-0.6c-0.3-0.2-0.6-0.2-0.8,0c-1,0.9-2.3,1.4-3.7,1.4s-2.6-0.5-3.7-1.4C7.6,28.1,7.4,28,7.3,28
	c-0.1,0-0.3,0-0.4,0.1c-0.6,0.4-1.3,0.6-2,0.6c-1.9,0-3.5-1.6-3.5-3.5c0-2.2,2.1-3.9,4.3-3.4c0.3,0.1,0.6-0.1,0.8-0.4
	c0.8-1.7,2.4-2.8,4.2-3.1c0.3,0,0.6-0.1,0.8-0.1c0.2,0,0.4,0,0.5,0c1.9,0.2,3.6,1.3,4.5,3.1C16.6,21.7,16.9,21.9,17.2,21.8z
	 M25.1,9.4c-5.1,0-9.2,3.9-9.6,8.9c-1-0.7-2.2-1.2-3.4-1.3c1.1-6.2,6.5-10.8,13-10.8c6.5,0,11.9,4.7,13,10.9
	c-1.3,0.2-2.4,0.7-3.4,1.5C34.5,13.5,30.3,9.4,25.1,9.4z M45.8,28.8l-2.9-0.6c-1,0.9-2.3,1.4-3.7,1.4c-1.3,0-2.6-0.5-3.7-1.4
	c-0.1-0.1-0.3-0.2-0.4-0.2c-0.1,0-0.3,0-0.4,0.1c-0.6,0.4-1.3,0.6-2,0.6c-1.9,0-3.5-1.6-3.5-3.5c0-2.2,2.1-3.9,4.3-3.4
	c0.3,0.1,0.6-0.1,0.8-0.4c0.8-1.7,2.4-2.8,4.2-3.1c0.3,0,0.6-0.1,0.9-0.1c0.2,0,0.3,0,0.5,0c1.9,0.2,3.7,1.3,4.5,3.1
	c0.1,0.3,0.4,0.4,0.8,0.4c2.2-0.5,4.3,1.3,4.3,3.4C49.3,27.2,47.7,28.8,45.8,28.8z"/>
</svg>
