<?xml version="1.0" encoding="utf-8"?>
<!-- Generator: Adobe Illustrator 19.0.0, SVG Export Plug-In . SVG Version: 6.00 Build 0)  -->
<svg version="1.1" id="Layer_1" xmlns="http://www.w3.org/2000/svg" xmlns:xlink="http://www.w3.org/1999/xlink" x="0px" y="0px"
	 viewBox="0 0 30.9 30.9" enable-background="new 0 0 30.9 30.9" xml:space="preserve">
<g id="XMLID_53_">
	<path id="XMLID_58_" fill="#010101" d="M26.4,4.5c-6-6-15.8-6-21.9,0c-6,6-6,15.8,0,21.9c3,3,7,4.5,10.9,4.5s7.9-1.5,10.9-4.5
		C32.4,20.4,32.4,10.6,26.4,4.5z M25.3,25.3c-5.4,5.4-14.3,5.4-19.7,0C0.1,19.9,0.1,11,5.6,5.6c2.7-2.7,6.3-4.1,9.9-4.1
		c3.6,0,7.1,1.4,9.9,4.1C30.8,11,30.8,19.9,25.3,25.3z"/>
	<path id="XMLID_63_" fill="#010101" d="M21.9,9c-0.4-0.4-1-0.4-1.4,0l-5,5l-5-5c-0.4-0.4-1-0.4-1.4,0s-0.4,1,0,1.4l5,5l-5,5
		c-0.4,0.4-0.4,1,0,1.4c0.2,0.2,0.5,0.3,0.7,0.3s0.5-0.1,0.7-0.3l5-5l5,5c0.2,0.2,0.5,0.3,0.7,0.3s0.5-0.1,0.7-0.3
		c0.4-0.4,0.4-1,0-1.4l-5-5l5-5C22.3,10.1,22.3,9.4,21.9,9z"/>
</g>
</svg>
