<?xml version="1.0" encoding="utf-8"?>
<!-- Generator: Adobe Illustrator 19.1.0, SVG Export Plug-In . SVG Version: 6.00 Build 0)  -->
<svg version="1.1" id="Layer_1" xmlns="http://www.w3.org/2000/svg" xmlns:xlink="http://www.w3.org/1999/xlink" x="0px" y="0px"
	 viewBox="-184 185 31 31" style="enable-background:new -184 185 31 31;" xml:space="preserve">
<path d="M-168.1,184.6c-8.6,0-15.5,7-15.5,15.5c0,4.4,1.9,8.4,4.9,11.3c1,1,2.2,1.8,3.4,2.4c0.3,0.2,0.7,0.4,1,0.6
	c1.1,0.5,2.2,0.8,3.4,1c0.4,0.1,0.8,0.1,1.2,0.2c0.5,0.1,1,0.1,1.6,0.1c0.6,0,1,0,1.6-0.1c0.4,0,0.8-0.1,1.2-0.2
	c1.2-0.2,2.3-0.6,3.4-1c0.4-0.2,0.7-0.3,1.1-0.5c1.2-0.7,2.4-1.5,3.4-2.4c3-2.8,4.9-6.8,4.9-11.3
	C-152.6,191.6-159.6,184.6-168.1,184.6z M-157.8,207.5h-2.7c-0.2,0-0.3,0.1-0.3,0.3v4.3c-0.3,0.2-0.7,0.4-1.1,0.6v-9.4
	c0-0.2-0.1-0.3-0.3-0.3h-2.8c-0.2,0-0.3,0.1-0.3,0.3v10.5c-0.3,0.1-0.7,0.1-1.1,0.2v-18.7c0-0.2-0.1-0.3-0.3-0.3h-2.7
	c-0.2,0-0.3,0.1-0.3,0.3V214c-0.4,0-0.7-0.1-1.1-0.2v-12.6c0-0.2-0.1-0.3-0.3-0.3h-2.7c-0.2,0-0.3,0.1-0.3,0.3v11.5
	c-0.4-0.2-0.7-0.4-1.1-0.6v-4.3c0-0.2-0.1-0.3-0.3-0.3h-2.9c-0.2,0-0.3,0.1-0.3,0.3v1.4c-2.1-2.5-3.4-5.6-3.4-9.1
	c0-7.7,6.3-14,14-14c7.7,0,14,6.3,14,14c0,3.5-1.3,6.7-3.4,9.1v-1.4C-157.5,207.7-157.6,207.5-157.8,207.5z"/>
</svg>
