<?xml version="1.0" encoding="utf-8"?>
<!-- Generator: Adobe Illustrator 19.1.0, SVG Export Plug-In . SVG Version: 6.00 Build 0)  -->
<svg version="1.1" id="Layer_1" xmlns="http://www.w3.org/2000/svg" xmlns:xlink="http://www.w3.org/1999/xlink" x="0px" y="0px"
	 viewBox="0 0 48.6 71.4" style="enable-background:new 0 0 48.6 71.4;" xml:space="preserve">
<g>
	<path d="M29.7,52.4c-0.2,0-0.3,0-0.5-0.1l-5.1-2.8L19,52.2c-0.5,0.2-1,0.1-1.3-0.3L14.4,47l-5.9,0c0,0,0,0,0,0
		c-0.5,0-0.9-0.4-1-0.9L7,40.3l-5.2-2.7c-0.5-0.2-0.7-0.8-0.5-1.3l2.2-5.4l-3.4-4.8c-0.3-0.4-0.2-1,0.2-1.3L4.8,21l-0.7-5.8
		c-0.1-0.5,0.3-1,0.8-1.1l5.7-1.3l2-5.5c0.2-0.5,0.7-0.8,1.2-0.6l5.6,1.5l4.4-3.9c0.4-0.3,1-0.3,1.3,0l4.3,4l5.7-1.4
		c0.5-0.1,1,0.1,1.2,0.6l2,5.5l5.7,1.4c0.5,0.1,0.8,0.6,0.8,1.1l-0.8,5.8l4.4,3.9c0.4,0.3,0.5,0.9,0.2,1.3L45,31.2l2.1,5.5
		c0.2,0.5,0,1-0.5,1.3l-5.2,2.6l-0.7,5.8c-0.1,0.5-0.5,0.9-1,0.9c0,0,0,0,0,0l-5.8-0.1L30.6,52C30.4,52.2,30.1,52.4,29.7,52.4z
		 M24.1,47.3c0.2,0,0.3,0,0.5,0.1l4.8,2.6l3.1-4.5c0.2-0.3,0.5-0.4,0.8-0.4l5.5,0.1l0.6-5.4c0-0.3,0.2-0.6,0.5-0.8l4.9-2.4l-2-5.1
		c-0.1-0.3-0.1-0.7,0.1-0.9l3.2-4.4l-4.1-3.6c-0.3-0.2-0.4-0.6-0.3-0.9l0.8-5.4l-5.3-1.3c-0.3-0.1-0.6-0.3-0.7-0.6L34.7,9l-5.3,1.3
		c-0.3,0.1-0.7,0-0.9-0.2l-4-3.7l-4.1,3.7c-0.3,0.2-0.6,0.3-0.9,0.2l-5.3-1.4L12.2,14c-0.1,0.3-0.4,0.6-0.7,0.6l-5.3,1.2l0.7,5.4
		c0,0.3-0.1,0.7-0.3,0.9l-4.2,3.5l3.1,4.5c0.2,0.3,0.2,0.6,0.1,0.9l-2.1,5.1l4.9,2.5c0.3,0.2,0.5,0.5,0.5,0.8L9.5,45l5.5,0
		c0.4,0,0.7,0.2,0.8,0.4l3,4.6l4.8-2.6C23.8,47.3,24,47.3,24.1,47.3z"/>
</g>
<g>
	<path d="M24.3,44.5c-8.8,0-16-7.2-16-16s7.2-16,16-16s16,7.2,16,16S33.2,44.5,24.3,44.5z M24.3,13.9c-8,0-14.5,6.5-14.5,14.5
		S16.3,43,24.3,43s14.5-6.5,14.5-14.5S32.3,13.9,24.3,13.9z"/>
</g>
<g>
	<g>
		<path d="M15.7,71.4c-0.3,0-0.5-0.1-0.7-0.3l-3.9-3.7l-5,0.8c-0.3,0.1-0.7-0.1-0.9-0.3c-0.2-0.3-0.3-0.6-0.2-1l7-21.2
			c0.2-0.5,0.7-0.8,1.3-0.6c0.5,0.2,0.8,0.7,0.6,1.3L7.4,65.9l3.9-0.6c0.3-0.1,0.6,0,0.8,0.3l3.1,3l6.3-19.3
			c0.2-0.5,0.7-0.8,1.3-0.6c0.5,0.2,0.8,0.7,0.6,1.3l-6.8,20.8c-0.1,0.3-0.4,0.6-0.7,0.7C15.9,71.4,15.8,71.4,15.7,71.4z"/>
	</g>
	<g>
		<path d="M32.9,71.4c-0.1,0-0.2,0-0.2,0c-0.3-0.1-0.6-0.3-0.7-0.7L25,49.6c-0.2-0.5,0.1-1.1,0.6-1.3c0.5-0.2,1.1,0.1,1.3,0.6
			l6.4,19.6l3.1-3c0.2-0.2,0.5-0.3,0.8-0.3l3.9,0.6l-6.4-19.5c-0.2-0.5,0.1-1.1,0.6-1.3c0.5-0.2,1.1,0.1,1.3,0.6l6.9,21
			c0.1,0.3,0,0.7-0.2,1c-0.2,0.3-0.6,0.4-0.9,0.3l-5-0.8l-3.9,3.7C33.4,71.3,33.1,71.4,32.9,71.4z"/>
	</g>
</g>
</svg>
