<?xml version="1.0" encoding="utf-8"?>
<!-- Generator: Adobe Illustrator 19.1.0, SVG Export Plug-In . SVG Version: 6.00 Build 0)  -->
<svg version="1.1" id="Layer_1" xmlns="http://www.w3.org/2000/svg" xmlns:xlink="http://www.w3.org/1999/xlink" x="0px" y="0px"
	 viewBox="0 0 31 31" style="enable-background:new 0 0 31 31;" xml:space="preserve">
<style type="text/css">
	.st0{fill:#010002;}
</style>
<g>
	<g>
		<path class="st0" d="M15.7,0.3C7.6,0.3,1,6.9,1,15.1s6.6,14.7,14.7,14.7s14.7-6.6,14.7-14.7C30.4,6.9,23.8,0.3,15.7,0.3z M23,11.8
			l0,0.5c0,4.8-3.7,10.3-10.3,10.3c-2,0-4-0.6-5.6-1.6C7.4,21,7.7,21,8,21c1.7,0,3.3-0.6,4.5-1.6c-1.6,0-2.9-1.1-3.4-2.5
			c0.2,0,0.4,0.1,0.7,0.1c0.3,0,0.7,0,1-0.1c-1.7-0.3-2.9-1.8-2.9-3.6v0c0.5,0.3,1,0.4,1.6,0.5c-1-0.7-1.6-1.8-1.6-3
			c0-0.7,0.2-1.3,0.5-1.8c1.8,2.2,4.5,3.6,7.5,3.8c-0.1-0.3-0.1-0.5-0.1-0.8c0-2,1.6-3.6,3.6-3.6c1,0,2,0.4,2.6,1.1
			c0.8-0.2,1.6-0.5,2.3-0.9c-0.3,0.8-0.8,1.6-1.6,2c0.7-0.1,1.4-0.3,2.1-0.6C24.4,10.6,23.7,11.3,23,11.8z"/>
	</g>
</g>
</svg>
