<?xml version="1.0" encoding="utf-8"?>
<!-- Generator: Adobe Illustrator 19.0.0, SVG Export Plug-In . SVG Version: 6.00 Build 0)  -->
<svg version="1.1" id="Layer_1" xmlns="http://www.w3.org/2000/svg" xmlns:xlink="http://www.w3.org/1999/xlink" x="0px" y="0px"
	 viewBox="0 0 30.9 30.9" enable-background="new 0 0 30.9 30.9" xml:space="preserve">
<g id="XMLID_58_">
	<path id="XMLID_59_" fill="#010101" d="M15.5,31.1C6.9,31.1,0,24.1,0,15.6S6.9,0.2,15.5,0.2s15.5,6.9,15.5,15.5S24,31.1,15.5,31.1z
		 M15.5,1.7c-7.7,0-14,6.3-14,14s6.3,14,14,14s14-6.3,14-14S23.1,1.7,15.5,1.7z"/>
</g>
<g id="XMLID_56_">
	<path id="XMLID_57_" fill="#010101" d="M20.7,14.7c-0.3,0-0.5-0.1-0.7-0.3l-4.6-4.6l-4.6,4.6c-0.4,0.4-1,0.4-1.4,0s-0.4-1,0-1.4
		l5.3-5.3c0.4-0.4,1-0.4,1.4,0l5.3,5.3c0.4,0.4,0.4,1,0,1.4C21.2,14.6,21,14.7,20.7,14.7z"/>
</g>
<g id="XMLID_54_">
	<path id="XMLID_55_" fill="#010101" d="M15.5,23.7c-0.6,0-1-0.4-1-1v-13c0-0.6,0.4-1,1-1s1,0.4,1,1v13C16.5,23.3,16,23.7,15.5,23.7
		z"/>
</g>
</svg>
