<?xml version="1.0" encoding="utf-8"?>
<!-- Generator: Adobe Illustrator 19.1.0, SVG Export Plug-In . SVG Version: 6.00 Build 0)  -->
<svg version="1.1" id="Layer_1" xmlns="http://www.w3.org/2000/svg" xmlns:xlink="http://www.w3.org/1999/xlink" x="0px" y="0px"
	 viewBox="0 0 49.2 58.1" style="enable-background:new 0 0 49.2 58.1;" xml:space="preserve">
<path d="M43.5,12.6c0-0.3,0-0.5,0-0.7C43.5,5.3,38.2,0,31.6,0C25.9,0,21.1,4,20,9.5c-1.4-0.8-3-1.2-4.6-1.2c-5.1,0-9.3,4.2-9.3,9.3
	c0,0.1,0,0.2,0,0.4h1.5c0-0.1,0-0.2,0-0.4c0-4.3,3.5-7.8,7.8-7.8c1.7,0,3.3,0.6,4.7,1.6c0.2,0.2,0.5,0.2,0.8,0.1
	c0.2-0.1,0.4-0.3,0.4-0.6c0.5-5.3,5-9.3,10.3-9.3C37.3,1.5,42,6.2,42,11.9c0,0.4,0,0.8-0.1,1.2c0,0.4,0.2,0.8,0.6,0.8
	c3,0.6,5.2,3.2,5.2,6.3c0,4-3.7,7.2-7.9,6.2c-0.3-0.1-0.7,0.1-0.8,0.4c-0.6,1.3-1.7,2.3-2.9,2.9v1.6c1.6-0.6,3-1.8,4-3.4
	c4.9,0.8,9.2-3,9.2-7.8C49.2,16.7,46.8,13.6,43.5,12.6z"/>
<path d="M34.3,58.1H0.8c-0.4,0-0.8-0.3-0.8-0.8V19.7C0,19.3,0.3,19,0.8,19h33.6c0.4,0,0.8,0.3,0.8,0.8v37.6
	C35.1,57.8,34.8,58.1,34.3,58.1z M1.5,56.6h32.1V20.5H1.5V56.6z"/>
<g>
	<path d="M30.3,49.9H4.8c-0.4,0-0.8-0.3-0.8-0.8V23.8c0-0.4,0.3-0.8,0.8-0.8h25.4c0.4,0,0.8,0.3,0.8,0.8v25.4
		C31,49.6,30.7,49.9,30.3,49.9z M5.6,48.4h23.9V24.5H5.6V48.4z"/>
</g>
<g>
	<g>
		<path d="M22.8,35.6c-0.3,0-0.5-0.1-0.7-0.3l-4.6-4.6L13,35.3c-0.4,0.4-1,0.4-1.4,0s-0.4-1,0-1.4l5.3-5.3c0.4-0.4,1-0.4,1.4,0
			l5.3,5.3c0.4,0.4,0.4,1,0,1.4C23.3,35.5,23.1,35.6,22.8,35.6z"/>
	</g>
</g>
<g>
	<g>
		<path d="M17.5,44.6c-0.6,0-1-0.4-1-1v-13c0-0.6,0.4-1,1-1s1,0.4,1,1v13C18.5,44.2,18.1,44.6,17.5,44.6z"/>
	</g>
</g>
</svg>
